<?xml version="1.0" encoding="utf-8"?>
<!-- Generator: Adobe Illustrator 26.4.1, SVG Export Plug-In . SVG Version: 6.00 Build 0)  -->
<svg version="1.1" id="Lag_1" xmlns="http://www.w3.org/2000/svg" xmlns:xlink="http://www.w3.org/1999/xlink" x="0px" y="0px"
	 viewBox="0 0 232 150" style="enable-background:new 0 0 232 150;" xml:space="preserve">
<style type="text/css">
	.st0{fill:#0043F5;}
</style>
<path class="st0" d="M171,148.7c34.7-6.6,61-37.1,61-73.7c0-41.4-33.6-75-75-75c-15.1,0-29.2,4.5-41,12.2
	C97.4,24.4,84.5,44.6,82.3,68h81.4c0.2,2.3,0.3,4.6,0.3,7c0,28.4-13.3,53.7-34,70c8.4,3.2,17.5,5,27,5
	C161.8,150,166.5,149.6,171,148.7z"/>
<path class="st0" d="M116,137.8c-11.8,7.7-25.9,12.2-41,12.2c-41.4,0-75-33.6-75-75C0,43.5,19.4,16.5,47,5.4C55.7,1.9,65.1,0,75,0
	c9.5,0,18.6,1.8,27,5C81.3,21.3,68,46.6,68,75c0,2.4,0.1,4.7,0.3,7h81.4C147.5,105.4,134.6,125.6,116,137.8z"/>
</svg>
